<svg viewBox="0 0 72 23" xmlns="http://www.w3.org/2000/svg" fill-rule="evenodd" clip-rule="evenodd" stroke-linejoin="round" stroke-miterlimit="1.414">
  <path d="M2.949 10.664H-.06V7.022h3.095v-.976C3.036 1.562 5.148 0 9.312 0c1.129 0 1.997.174 2.662.289l-.32 3.588c-.433-.145-.866-.234-1.65-.234-1.33 0-1.848.926-1.848 2.403v.976h3.769v3.642h-3.77v11.378H2.95V10.664h-.001zM13.942.344h5.209v21.698h-5.21V.344h.001zm7.807.347h5.205v3.821h-5.205V.691zm0 6.316h5.205v15.034h-5.205V7.007zm19.328 4.272c-.956-.577-1.908-.836-3.151-.836-2.258 0-3.993 1.563-3.993 4.165 0 2.398 2.024 3.96 4.28 3.96 1.187 0 2.372-.258 3.24-.721l.117 3.876c-1.301.433-2.863.666-4.254.666-4.974 0-8.763-2.894-8.763-7.87 0-5.006 3.789-7.897 8.763-7.897 1.563 0 2.952.263 4.138.841l-.377 3.816zM43.739.344h5.206v12.961h.057l4.338-6.334h5.699l-5.234 6.916 5.668 8.155h-6.306L49 14.578h-.057v7.464h-5.206V.344h.002zm27.947 10.792c-.578-.175-1.154-.175-1.763-.175-2.431 0-3.792 1.767-3.792 4.718v6.363h-5.203V6.971h4.743v2.777h.056c.898-1.911 2.2-3.125 4.457-3.125.607 0 1.245.085 1.763.174l-.261 4.339z" fill="#fff" fill-rule="nonzero"/>
</svg>